HIERARCHY
ROOT mixamorig:Hips
{
	OFFSET 0.000000 201.639420 0.000000
	CHANNELS 6 Xposition Yposition Zposition Xrotation Yrotation Zrotation
	JOINT mixamorig:Spine
	{
		OFFSET 0.006200 19.524994 -2.481800
		CHANNELS 3 Xrotation Yrotation Zrotation
		JOINT mixamorig:Spine1
		{
			OFFSET -0.000900 22.835007 -2.825400
			CHANNELS 3 Xrotation Yrotation Zrotation
			JOINT mixamorig:Spine2
			{
				OFFSET -0.020600 26.552490 -3.193300
				CHANNELS 3 Xrotation Yrotation Zrotation
				JOINT mixamorig:Neck
				{
					OFFSET -0.060000 30.701813 1.352200
					CHANNELS 3 Xrotation Yrotation Zrotation
					JOINT mixamorig:Head
					{
						OFFSET -0.087200 22.547607 3.670900
						CHANNELS 3 Xrotation Yrotation Zrotation
						JOINT mixamorig:HeadTop_End
						{
							OFFSET -0.830600 40.355194 7.893500
							CHANNELS 3 Xrotation Yrotation Zrotation
							End Site
							{
								OFFSET 0.000000 30.592346 0.000000
							}
						}
						JOINT mixamorig:RightEye
						{
							OFFSET -6.302100 18.118591 16.197100
							CHANNELS 3 Xrotation Yrotation Zrotation
							End Site
							{
								OFFSET 0.000000 30.592346 0.000000
							}
						}
						JOINT mixamorig:LeftEye
						{
							OFFSET 6.741500 18.382690 16.401899
							CHANNELS 3 Xrotation Yrotation Zrotation
							End Site
							{
								OFFSET 0.000000 30.592346 0.000000
							}
						}
					}
				}
				JOINT mixamorig:LeftShoulder
				{
					OFFSET 11.924900 18.230499 1.425400
					CHANNELS 3 Xrotation Yrotation Zrotation
					JOINT mixamorig:LeftArm
					{
						OFFSET 25.435989 -0.697632 -5.229300
						CHANNELS 3 Xrotation Yrotation Zrotation
						JOINT mixamorig:LeftForeArm
						{
							OFFSET 54.684776 0.000000 0.000000
							CHANNELS 3 Xrotation Yrotation Zrotation
							JOINT mixamorig:LeftHand
							{
								OFFSET 55.098175 0.000000 0.000000
								CHANNELS 3 Xrotation Yrotation Zrotation
								JOINT mixamorig:LeftHandMiddle1
								{
									OFFSET 23.369751 0.000000 0.000000
									CHANNELS 3 Xrotation Yrotation Zrotation
									JOINT mixamorig:LeftHandMiddle2
									{
										OFFSET 6.378677 0.000000 0.000000
										CHANNELS 3 Xrotation Yrotation Zrotation
										JOINT mixamorig:LeftHandMiddle3
										{
											OFFSET 6.148331 0.000000 0.000000
											CHANNELS 3 Xrotation Yrotation Zrotation
											JOINT mixamorig:LeftHandMiddle4
											{
												OFFSET 6.582504 0.000000 0.000000
												CHANNELS 3 Xrotation Yrotation Zrotation
												End Site
												{
													OFFSET -1.168900 6.395691 1.028606
												}
											}
										}
									}
								}
								JOINT mixamorig:LeftHandThumb1
								{
									OFFSET 7.235672 -3.848206 5.434273
									CHANNELS 3 Xrotation Yrotation Zrotation
									JOINT mixamorig:LeftHandThumb2
									{
										OFFSET 6.568451 -3.792297 3.792300
										CHANNELS 3 Xrotation Yrotation Zrotation
										JOINT mixamorig:LeftHandThumb3
										{
											OFFSET 6.063080 -3.500519 3.500518
											CHANNELS 3 Xrotation Yrotation Zrotation
											JOINT mixamorig:LeftHandThumb4
											{
												OFFSET 4.793182 -2.767334 2.767349
												CHANNELS 3 Xrotation Yrotation Zrotation
												End Site
												{
													OFFSET 0.101639 6.054260 1.275483
												}
											}
										}
									}
								}
								JOINT mixamorig:LeftHandIndex1
								{
									OFFSET 23.101074 -0.309540 4.992809
									CHANNELS 3 Xrotation Yrotation Zrotation
									JOINT mixamorig:LeftHandIndex2
									{
										OFFSET 6.226883 0.000000 0.000000
										CHANNELS 3 Xrotation Yrotation Zrotation
										JOINT mixamorig:LeftHandIndex3
										{
											OFFSET 6.094330 0.000000 0.000000
											CHANNELS 3 Xrotation Yrotation Zrotation
											JOINT mixamorig:LeftHandIndex4
											{
												OFFSET 5.482605 0.000000 0.000000
												CHANNELS 3 Xrotation Yrotation Zrotation
												End Site
												{
													OFFSET -1.427902 5.233032 0.797164
												}
											}
										}
									}
								}
								JOINT mixamorig:LeftHandRing1
								{
									OFFSET 22.299240 0.021149 -3.964172
									CHANNELS 3 Xrotation Yrotation Zrotation
									JOINT mixamorig:LeftHandRing2
									{
										OFFSET 6.321869 0.000000 0.000000
										CHANNELS 3 Xrotation Yrotation Zrotation
										JOINT mixamorig:LeftHandRing3
										{
											OFFSET 5.899796 0.000000 0.000000
											CHANNELS 3 Xrotation Yrotation Zrotation
											JOINT mixamorig:LeftHandRing4
											{
												OFFSET 6.517899 0.000000 0.000000
												CHANNELS 3 Xrotation Yrotation Zrotation
												End Site
												{
													OFFSET -1.637299 6.232208 0.980890
												}
											}
										}
									}
								}
								JOINT mixamorig:LeftHandPinky1
								{
									OFFSET 20.463791 -0.302338 -8.562233
									CHANNELS 3 Xrotation Yrotation Zrotation
									JOINT mixamorig:LeftHandPinky2
									{
										OFFSET 6.908646 0.000000 0.000000
										CHANNELS 3 Xrotation Yrotation Zrotation
										JOINT mixamorig:LeftHandPinky3
										{
											OFFSET 4.622849 0.000000 0.000000
											CHANNELS 3 Xrotation Yrotation Zrotation
											JOINT mixamorig:LeftHandPinky4
											{
												OFFSET 5.216080 0.000000 0.000000
												CHANNELS 3 Xrotation Yrotation Zrotation
												End Site
												{
													OFFSET -0.606308 5.116241 0.814926
												}
											}
										}
									}
								}
							}
						}
					}
				}
				JOINT mixamorig:RightShoulder
				{
					OFFSET -12.001300 18.284088 1.348900
					CHANNELS 3 Xrotation Yrotation Zrotation
					JOINT mixamorig:RightArm
					{
						OFFSET -25.308500 -0.751312 -5.164599
						CHANNELS 3 Xrotation Yrotation Zrotation
						JOINT mixamorig:RightForeArm
						{
							OFFSET -54.684429 0.000000 0.000000
							CHANNELS 3 Xrotation Yrotation Zrotation
							JOINT mixamorig:RightHand
							{
								OFFSET -55.150291 0.000000 0.000000
								CHANNELS 3 Xrotation Yrotation Zrotation
								JOINT mixamorig:RightHandMiddle1
								{
									OFFSET -23.317566 0.000000 0.000000
									CHANNELS 3 Xrotation Yrotation Zrotation
									JOINT mixamorig:RightHandMiddle2
									{
										OFFSET -6.378403 0.000000 0.000000
										CHANNELS 3 Xrotation Yrotation Zrotation
										JOINT mixamorig:RightHandMiddle3
										{
											OFFSET -6.148193 0.000000 0.000000
											CHANNELS 3 Xrotation Yrotation Zrotation
											JOINT mixamorig:RightHandMiddle4
											{
												OFFSET -6.583389 0.000000 0.000000
												CHANNELS 3 Xrotation Yrotation Zrotation
												End Site
												{
													OFFSET 1.171692 6.395905 1.029786
												}
											}
										}
									}
								}
								JOINT mixamorig:RightHandThumb1
								{
									OFFSET -7.190521 -3.860474 5.435846
									CHANNELS 3 Xrotation Yrotation Zrotation
									JOINT mixamorig:RightHandThumb2
									{
										OFFSET -6.567429 -3.791718 3.791708
										CHANNELS 3 Xrotation Yrotation Zrotation
										JOINT mixamorig:RightHandThumb3
										{
											OFFSET -6.062469 -3.500153 3.500166
											CHANNELS 3 Xrotation Yrotation Zrotation
											JOINT mixamorig:RightHandThumb4
											{
												OFFSET -4.792618 -2.767029 2.767022
												CHANNELS 3 Xrotation Yrotation Zrotation
												End Site
												{
													OFFSET -0.100327 6.053253 1.276754
												}
											}
										}
									}
								}
								JOINT mixamorig:RightHandIndex1
								{
									OFFSET -23.048981 -0.310791 4.992554
									CHANNELS 3 Xrotation Yrotation Zrotation
									JOINT mixamorig:RightHandIndex2
									{
										OFFSET -6.227539 0.000000 0.000000
										CHANNELS 3 Xrotation Yrotation Zrotation
										JOINT mixamorig:RightHandIndex3
										{
											OFFSET -6.095047 0.000000 0.000000
											CHANNELS 3 Xrotation Yrotation Zrotation
											JOINT mixamorig:RightHandIndex4
											{
												OFFSET -5.484772 0.000000 0.000000
												CHANNELS 3 Xrotation Yrotation Zrotation
												End Site
												{
													OFFSET 1.420593 5.237305 0.797056
												}
											}
										}
									}
								}
								JOINT mixamorig:RightHandRing1
								{
									OFFSET -22.246323 0.020569 -3.963762
									CHANNELS 3 Xrotation Yrotation Zrotation
									JOINT mixamorig:RightHandRing2
									{
										OFFSET -6.322128 0.000000 0.000000
										CHANNELS 3 Xrotation Yrotation Zrotation
										JOINT mixamorig:RightHandRing3
										{
											OFFSET -5.900024 0.000000 0.000000
											CHANNELS 3 Xrotation Yrotation Zrotation
											JOINT mixamorig:RightHandRing4
											{
												OFFSET -6.518356 0.000000 0.000000
												CHANNELS 3 Xrotation Yrotation Zrotation
												End Site
												{
													OFFSET 1.636398 6.232697 0.982186
												}
											}
										}
									}
								}
								JOINT mixamorig:RightHandPinky1
								{
									OFFSET -20.411011 -0.303314 -8.561701
									CHANNELS 3 Xrotation Yrotation Zrotation
									JOINT mixamorig:RightHandPinky2
									{
										OFFSET -6.907349 0.000000 0.000000
										CHANNELS 3 Xrotation Yrotation Zrotation
										JOINT mixamorig:RightHandPinky3
										{
											OFFSET -4.623840 0.000000 0.000000
											CHANNELS 3 Xrotation Yrotation Zrotation
											JOINT mixamorig:RightHandPinky4
											{
												OFFSET -5.218353 0.000000 0.000000
												CHANNELS 3 Xrotation Yrotation Zrotation
												End Site
												{
													OFFSET 0.602097 5.118835 0.816273
												}
											}
										}
									}
								}
							}
						}
					}
				}
			}
		}
	}
	JOINT mixamorig:LeftUpLeg
	{
		OFFSET 18.168400 -13.561905 -0.039000
		CHANNELS 3 Xrotation Yrotation Zrotation
		JOINT mixamorig:LeftLeg
		{
			OFFSET 0.577358 -80.825211 -3.695000
			CHANNELS 3 Xrotation Yrotation Zrotation
			JOINT mixamorig:LeftFoot
			{
				OFFSET -0.577356 -83.370262 -6.520700
				CHANNELS 3 Xrotation Yrotation Zrotation
				JOINT mixamorig:LeftToeBase
				{
					OFFSET 0.750401 -20.798306 25.135401
					CHANNELS 3 Xrotation Yrotation Zrotation
					JOINT mixamorig:LeftToe_End
					{
						OFFSET -0.000500 0.001200 19.917799
						CHANNELS 3 Xrotation Yrotation Zrotation
						End Site
						{
							OFFSET 0.000000 19.917805 0.000000
						}
					}
				}
			}
		}
	}
	JOINT mixamorig:RightUpLeg
	{
		OFFSET -18.162500 -13.585098 -0.041000
		CHANNELS 3 Xrotation Yrotation Zrotation
		JOINT mixamorig:RightLeg
		{
			OFFSET -0.595024 -80.945297 -3.631900
			CHANNELS 3 Xrotation Yrotation Zrotation
			JOINT mixamorig:RightFoot
			{
				OFFSET 0.595024 -83.218193 -6.561200
				CHANNELS 3 Xrotation Yrotation Zrotation
				JOINT mixamorig:RightToeBase
				{
					OFFSET -0.753601 -20.807106 25.115000
					CHANNELS 3 Xrotation Yrotation Zrotation
					JOINT mixamorig:RightToe_End
					{
						OFFSET 0.000299 0.001700 19.918200
						CHANNELS 3 Xrotation Yrotation Zrotation
						End Site
						{
							OFFSET 0.000000 19.918203 0.000000
						}
					}
				}
			}
		}
	}
}
MOTION
Frames: 5
Frame Time: 0.033333
7.995484 185.614731 228.029068 3.552136 -6.355708 -3.874003 16.022640 3.450565 1.925912 19.617232 7.612217 3.331499 19.436452 7.747064 3.778478 -47.550633 27.672103 -28.991380 38.119235 -35.320657 37.422736 0.000001 -0.000000 -0.000000 0.000001 -0.000000 -0.000000 0.000001 -0.000000 -0.000000 -3.381578 -14.879787 -10.335930 -13.224288 6.607385 -66.021893 -0.000002 -61.657771 0.000003 11.729636 10.831209 -6.290830 -1.056187 2.737754 -36.217013 1.715061 4.142252 -44.968514 1.052597 3.352002 -34.858185 -0.000000 -0.000000 0.000000 40.231552 -29.869654 63.220654 101.357145 66.798137 231.385663 -12.925894 -19.532208 6.920533 0.000000 0.000001 -0.000001 0.332582 4.115492 -16.628118 0.574479 2.531945 -25.563267 0.066835 0.883336 -8.653498 -0.000002 -0.000001 0.000003 -3.220685 3.154188 -55.385673 2.283633 4.640717 -52.383548 3.599325 5.401809 -67.330652 -0.000002 0.000000 0.000001 -4.265357 3.043545 -58.932935 2.013853 4.420406 -48.969147 2.797101 4.993192 -58.492360 0.000001 0.000001 -0.000001 -0.354245 18.524212 5.452752 -46.329638 9.134347 35.856092 0.000225 102.007782 -0.000224 -4.606123 -14.524220 16.388243 2.920902 -8.736718 28.390125 5.675515 -4.544722 102.644042 5.225972 -4.622381 97.022960 0.000002 0.000003 -0.000001 33.376464 32.501059 -7.034578 15.577901 -52.554320 22.116829 7.397106 -41.000546 0.906506 0.000003 -0.000001 0.000004 0.230065 -3.590280 18.982733 3.761822 -4.570443 78.904060 3.761826 -4.570476 78.904080 -0.000001 0.000002 -0.000002 1.674755 -5.880000 58.233114 4.191174 -4.633857 84.251032 4.353516 -4.647262 86.257578 -0.000001 -0.000001 -0.000000 1.781885 -5.983837 61.063476 3.804127 -4.578542 79.434151 3.804119 -4.578538 79.434205 0.000000 -0.000000 -0.000001 -48.284106 9.315572 10.896533 36.475177 -6.393786 3.473633 -3.005646 -11.160611 -3.253388 4.289522 -1.961962 0.567512 -0.000000 0.000001 0.000000 -24.285311 2.375084 7.942618 47.032095 4.041393 -2.061570 -25.470281 -1.066516 0.135304 -1.095167 0.000002 0.000001 0.000000 -0.000000 0.000000 
7.091211 186.144241 224.646057 1.733920 -6.437306 -4.586889 15.689112 3.447908 2.243294 18.892739 7.360078 3.379201 18.718997 7.487796 3.782730 -47.227975 26.281465 -28.461882 39.969908 -34.405155 38.024032 -0.000002 0.000001 -0.000000 -0.000002 0.000001 -0.000000 -0.000002 0.000001 -0.000000 -2.920870 -13.934222 -10.054505 -15.900428 7.130572 -67.405013 -0.000006 -55.377364 -0.000018 14.612000 10.219428 -7.765614 -1.047814 2.751431 -36.235964 1.714581 4.141770 -44.961896 1.052591 3.352001 -34.858181 0.000001 -0.000002 0.000000 40.231563 -29.869654 63.220661 101.357214 66.798130 231.385608 -12.925857 -19.532222 6.920530 -0.000001 0.000000 0.000003 0.345257 4.157187 -16.715899 0.573114 2.529093 -25.532471 0.066361 0.880222 -8.622727 0.000001 0.000001 -0.000001 -3.228417 3.148146 -55.381479 2.281643 4.639184 -52.358950 3.597007 5.400848 -67.306009 -0.000001 -0.000000 -0.000002 -4.292134 3.025736 -58.924834 2.015188 4.421567 -48.986486 2.798604 4.994112 -58.509654 -0.000003 0.000002 0.000000 -0.415590 16.816240 7.010212 -50.064860 9.752492 34.132699 0.000005 102.015193 -0.000005 -0.832179 -16.814196 17.983343 4.252593 -9.772387 34.665990 5.688888 -4.541689 102.812597 5.225955 -4.622371 97.022953 0.000000 -0.000004 -0.000002 32.697895 34.534912 -6.548647 23.673127 -54.235486 30.132899 0.999263 -34.867402 -5.347201 -0.000001 0.000000 0.000002 0.718687 -4.714156 27.043106 3.751669 -4.568459 78.776602 3.751685 -4.568483 78.776567 0.000001 -0.000001 -0.000002 1.962019 -6.088681 61.568992 4.166820 -4.631335 83.949377 4.329073 -4.645581 85.955888 -0.000001 0.000002 -0.000001 1.641903 -5.979089 64.563511 3.670838 -4.551754 77.759914 3.670852 -4.551751 77.759989 0.000000 0.000001 0.000001 -46.958203 9.184867 12.262067 36.776228 -4.776841 3.497997 -7.699275 -6.329337 -3.373670 3.731110 -2.876473 1.489688 0.000000 -0.000000 -0.000000 -22.825831 1.736377 8.601421 45.716632 4.462013 -1.893609 -24.476068 -0.867225 -0.577067 -0.815241 0.000002 0.000003 -0.000000 0.000000 0.000000 
6.303432 186.591690 221.472260 -0.090025 -5.933544 -4.978880 15.404209 3.335629 2.562710 18.307151 6.842977 3.335158 18.139587 6.974636 3.683824 -47.474514 23.980695 -27.014402 40.047902 -33.747903 36.703832 -0.000002 0.000001 -0.000001 -0.000002 0.000001 -0.000001 -0.000002 0.000001 -0.000001 -2.496472 -13.195355 -9.565476 -18.578972 8.187681 -68.480283 -0.000011 -49.237345 -0.000008 17.978356 9.789712 -9.271026 -1.039424 2.765101 -36.254839 1.714110 4.141298 -44.955339 1.052592 3.351996 -34.858174 -0.000001 -0.000000 -0.000001 40.231552 -29.869640 63.220661 101.357159 66.798164 231.385690 -12.925820 -19.532225 6.920532 0.000004 0.000000 0.000003 0.358041 4.198779 -16.803582 0.571764 2.526261 -25.501787 0.065887 0.877120 -8.592071 -0.000000 0.000001 0.000002 -3.236127 3.142102 -55.377237 2.279660 4.637662 -52.334368 3.594684 5.399872 -67.281352 0.000000 0.000000 0.000003 -4.318859 3.007929 -58.916754 2.016516 4.422719 -49.003735 2.800107 4.995024 -58.526948 -0.000001 0.000001 -0.000000 -0.357486 14.871762 8.511748 -54.828647 10.545208 32.887784 -0.000137 100.870453 0.000140 3.720333 -16.443865 16.346709 5.533451 -10.167505 41.740352 5.701093 -4.538907 102.966871 5.225943 -4.622364 97.022953 0.000004 -0.000000 -0.000002 30.819429 32.845314 -6.116903 32.830086 -54.977398 38.589858 -3.557278 -28.386194 -10.833256 -0.000001 0.000001 0.000000 1.365440 -5.600602 36.167532 3.751151 -4.568356 78.770386 3.751181 -4.568378 78.770372 0.000007 -0.000002 0.000004 2.403936 -6.337929 64.359466 4.133787 -4.627721 83.540413 4.295956 -4.643151 85.546904 -0.000000 -0.000001 0.000003 1.207095 -5.905224 68.434199 3.594196 -4.534495 76.792172 3.594198 -4.534501 76.792377 -0.000001 0.000001 0.000001 -45.275692 7.371819 13.479058 37.970879 1.640086 2.065509 -7.312488 -5.311162 -7.308355 2.830169 -3.535701 2.253638 0.000001 0.000000 -0.000000 -21.627220 1.262103 9.198474 45.078361 4.673798 -2.019410 -23.241865 -1.200866 -1.106370 -0.534736 0.000003 0.000001 0.000000 -0.000000 0.000000 
5.690201 186.901108 218.558929 -1.821196 -4.976450 -5.164459 15.176455 3.141871 2.895686 17.724862 6.151640 3.244094 17.563864 6.278936 3.554083 -48.125653 20.993032 -25.171766 38.821583 -33.048249 34.143207 -0.000001 0.000000 0.000001 -0.000001 0.000000 0.000001 -0.000001 0.000000 0.000001 -2.043100 -12.649533 -9.012653 -20.905671 9.779926 -69.261806 0.000011 -44.059249 0.000035 21.969432 9.613490 -10.878308 -1.031054 2.778739 -36.273721 1.713643 4.140830 -44.948782 1.052592 3.351995 -34.858168 -0.000000 0.000000 0.000000 40.231573 -29.869636 63.220661 101.357063 66.798137 231.385772 -12.925788 -19.532232 6.920529 0.000001 -0.000002 0.000005 0.370917 4.240271 -16.891184 0.570411 2.523443 -25.471188 0.065433 0.874034 -8.561568 -0.000000 0.000001 -0.000002 -3.243832 3.136069 -55.372999 2.277673 4.636133 -52.309755 3.592359 5.398897 -67.256668 -0.000001 -0.000000 -0.000001 -4.345552 2.990140 -58.908640 2.017843 4.423861 -49.020927 2.801607 4.995948 -58.544140 0.000000 0.000002 0.000001 -0.267054 12.535942 9.806652 -61.139052 11.110010 32.393887 0.000117 100.747920 -0.000126 9.780114 -14.998797 8.790721 4.260254 -8.610294 42.985847 5.705786 -4.537844 103.025890 5.225966 -4.622354 97.022940 0.000003 -0.000000 0.000002 26.250341 26.017750 -15.229211 36.219025 -51.983658 42.237835 -5.015458 -33.140361 -15.750324 -0.000001 0.000002 -0.000000 1.329634 -5.558490 35.831743 3.768943 -4.571822 78.993214 3.768936 -4.571864 78.993221 0.000004 0.000000 -0.000001 2.475189 -6.370893 64.124241 4.110024 -4.624975 83.245424 4.272053 -4.641214 85.251921 -0.000000 -0.000000 0.000001 -1.624120 -4.721294 67.676424 3.689597 -4.555763 77.996000 3.689703 -4.555774 77.997284 0.000003 -0.000003 0.000002 -42.862938 6.484792 14.432738 40.223814 5.570073 1.136864 -4.400654 -4.963357 -11.163015 2.189372 -5.186652 3.787637 -0.000001 0.000000 0.000000 -20.438960 0.823537 9.696816 44.635133 4.621127 -2.284562 -22.422037 -1.794215 -1.845066 -0.377706 0.000001 -0.000000 0.000000 0.000000 0.000000 
5.300175 187.005981 215.930832 -3.318171 -3.855260 -5.328378 14.933264 2.887556 3.264865 17.074479 5.400403 3.165253 16.922719 5.503442 3.459010 -48.745154 17.997564 -23.542358 37.034669 -32.466061 31.243153 -0.000000 0.000001 -0.000000 -0.000000 0.000001 -0.000000 -0.000000 0.000001 -0.000000 -1.565846 -12.217986 -8.558234 -22.475907 11.559220 -69.794568 0.000006 -40.635719 0.000003 26.208332 9.699055 -12.472036 -1.022676 2.792362 -36.292589 1.713165 4.140354 -44.942214 1.052593 3.352004 -34.858171 -0.000000 -0.000001 0.000000 40.231556 -29.869626 63.220668 101.357125 66.798164 231.385717 -12.925731 -19.532227 6.920545 -0.000001 -0.000000 0.000003 0.383879 4.281667 -16.978650 0.569073 2.520624 -25.440747 0.064960 0.870960 -8.531184 -0.000000 -0.000001 0.000005 -3.251532 3.130032 -55.368751 2.275692 4.634609 -52.285163 3.590037 5.397932 -67.232031 -0.000000 0.000001 -0.000002 -4.372209 2.972345 -58.900512 2.019154 4.425001 -49.038043 2.803091 4.996843 -58.561250 -0.000001 0.000002 0.000002 -0.083306 9.912747 10.665540 -68.418435 10.326491 32.300839 0.000421 102.312566 -0.000454 13.645177 -12.976232 -2.603410 2.300515 -6.409852 46.616243 5.703888 -4.538284 103.002108 5.225967 -4.622378 97.022967 -0.000001 0.000001 -0.000003 23.597964 22.982343 -19.948025 39.112870 -50.729826 45.208705 -5.764233 -36.742665 -18.422905 0.000002 0.000000 0.000001 0.763777 -4.784626 36.537031 3.749332 -4.567993 78.747320 3.749340 -4.568023 78.747320 0.000002 0.000002 -0.000000 1.475128 -5.915393 65.131857 4.088920 -4.622457 82.983861 4.250926 -4.639422 84.990352 0.000001 -0.000002 -0.000000 -4.582984 -3.585252 68.207171 3.717686 -4.561626 78.349298 3.717934 -4.561667 78.352713 0.000000 0.000002 -0.000001 -41.299709 6.011895 15.245737 46.523697 5.004248 0.924074 -4.431254 -4.905737 -13.006116 1.942430 -6.840325 5.239021 -0.000000 0.000000 0.000000 -19.443981 0.218551 10.113513 44.452620 4.633546 -2.576884 -22.188202 -2.475979 -2.739430 -0.235747 -0.000002 -0.000000 -0.000000 -0.000000 -0.000000 
